# AST/ASF file generated using VICON BodyLanguage
# -----------------------------------------------
:version 1.10
:name VICON
:units
  mass 1.0
  length 0.45
  angle deg
:documentation
   .ast/.asf automatically generated from VICON data using
   VICON BodyBuilder and BodyLanguage model FoxedUp or BRILLIANT.MOD
:root
   order TX TY TZ RX RY RZ
   axis XYZ
   position 0 0 0  
   orientation 0 0 0 
:bonedata
  begin
     id 1 
     name lhipjoint
     direction 0.692814 -0.645514 0.321437 
     length 2.38754 
     axis 0 0 0  XYZ
  end
  begin
     id 2 
     name lfemur
     direction 0.34202 -0.939693 0  
     length 6.41921  
     axis 0 0 20  XYZ
    dof rx ry rz
    limits (-160.0 20.0)
           (-70.0 70.0)
           (-60.0 70.0)
  end
  begin
     id 3 
     name ltibia
     direction 0.34202 -0.939693 0   
     length 6.98247   
     axis 0 0 20   XYZ
    dof rx
    limits (-10.0 170.0)
  end
  begin
     id 4 
     name lfoot
     direction 0.0947186 -0.260237 0.960888   
     length 1.83034   
     axis -90 7.62852e-016 20   XYZ
    dof rx rz
    limits (-45.0 90.0)
           (-70.0 20.0)
  end
  begin
     id 5 
     name ltoes
     direction 1.53538e-011 -4.21952e-011 1   
     length 0.920499   
     axis -90 7.62852e-016 20   XYZ
    dof rx
    limits (-90.0 20.0)
  end
  begin
     id 6 
     name rhipjoint
     direction -0.631686 -0.693949 0.345555   
     length 2.2209  
     axis 0 0 0  XYZ 
  end
  begin
     id 7 
     name rfemur
     direction -0.34202 -0.939693 0   
     length 6.49542   
     axis 0 0 -20   XYZ
    dof rx ry rz
    limits (-160.0 20.0)
           (-70.0 70.0)
           (-70.0 60.0)
  end
  begin
     id 8 
     name rtibia
     direction -0.34202 -0.939693 0   
     length 7.21712   
     axis 0 0 -20   XYZ
    dof rx
    limits (-10.0 170.0)
 end
 begin
     id 9 
     name rfoot
     direction -0.0825378 -0.226771 0.970444   
     length 1.89724  
     axis -90 -7.62852e-016 -20   XYZ
    dof rx rz
    limits (-45.0 90.0)
           (-20.0 70.0)
  end
  begin
     id 10 
     name rtoes
     direction -1.53515e-011 -4.22016e-011 1   
     length 0.955868   
     axis -90 -7.62852e-016 -20   XYZ
    dof rx
    limits (-90.0 20.0)
  end
  begin
     id 11 
     name lowerback
     direction -0.0104711 0.984802 -0.173368   
     length 1.84931   
     axis 0 0 0   XYZ
    dof rx ry rz
    limits (-20.0 45.0)
           (-30.0 30.0)
           (-30.0 30.0)
  end
  begin
     id 12 
     name upperback
     direction -0.00286433 0.999996 -0.000382853   
     length 1.85768   
     axis 0 0 0   XYZ
    dof rx ry rz
    limits (-20.0 45.0)
           (-30.0 30.0)
           (-30.0 30.0)
  end
  begin
     id 13 
     name thorax
     direction 0.00167534 0.996793 0.0800069   
     length 1.92   
     axis 0 0 0   XYZ
    dof rx ry rz
    limits (-20.0 45.0)
           (-30.0 30.0)
           (-30.0 30.0)
  end
  begin
     id 14 
     name lowerneck
     direction -0.0672491 0.995415 0.068018   
     length 1.58923   
     axis 0 0 0   XYZ
    dof rx ry rz
    limits (-20.0 45.0)
           (-30.0 30.0)
           (-30.0 30.0)
  end
  begin
     id 15 
     name upperneck
     direction 0.0958019 0.982476 -0.159884   
     length 1.60189   
     axis 0 0 0   XYZ
    dof rx ry rz
    limits (-20.0 45.0)
           (-30.0 30.0)
           (-30.0 30.0)
  end
  begin
     id 16
     name head
     direction 0.032989 0.997338 -0.0650226  
     length 1.61681  
     axis 0 0 0   XYZ
    dof rx ry rz
    limits (-20.0 45.0)
           (-30.0 30.0)
           (-30.0 30.0)
  end
  begin
     id 17 
     name lclavicle
     direction 0.954279 0.298875 -0.00496069  
     length 2.99449  
     axis 0 0 0   XYZ
    dof ry rz
    limits (-20.0 10.0)
           (0.0 20.0)
  end
  begin
     id 18 
     name lhumerus
     direction 1 -4.48985e-011 -4.2057e-027   
     length 4.79185   
     axis 180 -30 -90   XYZ
    dof rx ry rz
    limits (-60.0 90.0)
           (-90.0 90.0)
           (-90.0 90.0)
  end
  begin
     id 19
     name lradius
     direction 1 -4.48945e-011 1.15441e-028   
     length 2.65553   
     axis 180 -30 -90   XYZ
    dof rx
    limits (-10.0 170.0)
  end
  begin
     id 20
     name lwrist
     direction 1 -4.4899e-011 4.8894e-028   
     length 1.32777   
     axis -2.56392e-016 90 90   XYZ
    dof ry
    limits (-180.0 0.0)
 end
  begin
     id 21 
     name lhand
     direction 1 -4.48908e-011 9.7788e-028   
     length 0.743904   
     axis -6.23971e-016 90 90   XYZ
    dof rx rz
    limits (-90.0 90.0)
           (-45.0 45.0)
  end
  begin
     id 22 
     name lfingers
     direction 1 -4.49068e-011 1.95576e-027   
     length 0.599754   
     axis -1.24794e-015 90 90   XYZ
    dof rx
    limits (0.0 90.0)
  end
  begin
     id 23
     name lthumb
     direction 0.707107 -6.34883e-011 0.707107   
     length 0.861131   
     axis -90 45 2.85299e-015   XYZ
    dof rx rz
    limits (-45.0 45.0)
           (-45.0 45.0)
  end
  begin
     id 24 
     name rclavicle
     direction -0.957921 0.286916 0.00811568   
     length 3.06817  
     axis 0 0 0   XYZ 
    dof ry rz
    limits (-10.0 20.0)
           (-20.0 0.0)
  end
  begin
     id 25 
     name rhumerus
     direction -1 -4.48971e-011 -3.07942e-027  
     length 4.77254   
     axis 180 30 90   XYZ
    dof rx ry rz
    limits (-90.0 60.0)
           (-90.0 90.0)
           (-90.0 90.0)
  end
  begin
     id 26 
     name rradius
     direction -1 -4.48957e-011 -9.6815e-028   
     length 2.75995   
     axis 180 30 90   XYZ
    dof rx
    limits (-10.0 170.0)
  end
  begin
     id 27 
     name rwrist
     direction -1 -4.48979e-011 4.8894e-028   
     length 1.37997   
     axis -2.56392e-016 -90 -90   XYZ
    dof ry
    limits (-180.0 0.0)
  end
  begin
     id 28
     name rhand
     direction -1 -4.48906e-011 9.7788e-028   
     length 0.701619   
     axis -6.23971e-016 -90 -90   XYZ
    dof rx rz
    limits (-90.0 90.0)
           (-45.0 45.0)
  end
  begin
     id 29
     name rfingers
     direction -1 -4.49018e-011 1.95576e-027   
     length 0.565663   
     axis -1.24794e-015 -90 -90   XYZ
    dof rx
    limits (0.0 90.0)
  end
  begin
     id 30
     name rthumb
     direction -0.707107 -6.34881e-011 0.707107   
     length 0.812183   
     axis -90 -45 -2.85299e-015   XYZ
    dof rx rz
    limits (-45.0 45.0)
           (-45.0 45.0)
  end
:hierarchy
  begin
    root lhipjoint rhipjoint lowerback
    lhipjoint lfemur
    lfemur ltibia
    ltibia lfoot
    lfoot ltoes
    rhipjoint rfemur
    rfemur rtibia
    rtibia rfoot
    rfoot rtoes
    lowerback upperback
    upperback thorax
    thorax lowerneck lclavicle rclavicle
    lowerneck upperneck
    upperneck head
    lclavicle lhumerus
    lhumerus lradius
    lradius lwrist
    lwrist lhand lthumb
    lhand lfingers
    rclavicle rhumerus
    rhumerus rradius
    rradius rwrist
    rwrist rhand rthumb
    rhand rfingers
  end

#!OML:ASF F:\VICON\USERDATA\INSTALL\rory3\rory3.ASF
:FULLY-SPECIFIED
:DEGREES
650
root 1.17882 15.1611 -0.708354 9.48435 7.40191 -3.09703
lowerback 17.2886 0.0580202 -7.66919
upperback -9.29046 -2.64175 -3.64578
thorax -20.2619 -0.432916 1.09315
lowerneck -11.2551 0.0239408 -5.51362
upperneck 32.4999 -1.41705 9.08257
head 12.7366 -0.133955 4.31513
rclavicle -7.95139e-015 4.45278e-014
rhumerus -81.511 16.0613 -69.8853
rradius 129.46
rwrist -47.323
rhand 38.4242 12.0253
rfingers 7.12502
rthumb 61.0765 -0.572966
lclavicle -7.95139e-015 4.45278e-014
lhumerus -78.1898 -24.2202 67.8562
lradius 130.978
lwrist 80.9615
lhand 21.6099 39.3319
lfingers 7.12502
lthumb 46.0318 62.4131
rfemur -30.186 -7.43283 15.7981
rtibia 48.4593
rfoot -20.0006 -6.47852
rtoes -23.446
lfemur -34.5677 -0.0939277 -17.261
ltibia 50.4437
lfoot -18.8406 -6.99524
ltoes -2.57321
651
root 1.17831 15.1587 -0.720114 9.7091 7.51041 -3.11407
lowerback 17.7051 0.0851733 -7.84774
upperback -9.43292 -2.72561 -3.68974
thorax -20.7016 -0.429038 1.17691
lowerneck -11.7617 -0.108355 -5.47403
upperneck 32.4948 -1.56543 8.96659
head 12.8592 -0.200768 4.24994
rclavicle 1.68967e-015 -9.54166e-015
rhumerus -80.9539 16.3924 -69.9109
rradius 129.476
rwrist -47.6415
rhand 38.7245 11.8768
rfingers 7.12502
rthumb 61.3297 -0.427522
lclavicle 1.68967e-015 -9.54166e-015
lhumerus -78.119 -24.4977 68.1403
lradius 131.052
lwrist 81.2715
lhand 21.6639 38.6958
lfingers 7.12502
lthumb 46.0819 61.7562
rfemur -30.3889 -7.40203 15.873
rtibia 48.3654
rfoot -20.1301 -6.69379
rtoes -23.1738
lfemur -34.9542 0.0169511 -17.253
ltibia 50.5619
lfoot -18.7443 -7.24814
ltoes -2.15934
652
root 1.17743 15.1567 -0.734028 9.89273 7.66442 -3.18727
lowerback 18.1698 0.102514 -7.94248
upperback -9.55178 -2.80266 -3.71505
thorax -21.1465 -0.431105 1.23462
lowerneck -12.3802 -0.260792 -5.57047
upperneck 32.5546 -1.74041 8.95442
head 13.0381 -0.281014 4.25142
rclavicle 5.46658e-015 4.45278e-014
rhumerus -80.404 16.7428 -69.9687
rradius 129.505
rwrist -47.9159
rhand 39.203 11.699
rfingers 7.12502
rthumb 61.7313 -0.125526
lclavicle 5.46658e-015 4.45278e-014
lhumerus -78.0955 -24.8657 68.5009
lradius 131.129
lwrist 81.4929
lhand 21.8002 38.0793
lfingers 7.12502
lthumb 46.2083 61.0866
rfemur -30.537 -7.3558 16.0186
rtibia 48.2392
rfoot -20.2527 -6.9415
rtoes -22.5618
lfemur -35.342 0.0837388 -17.1743
ltibia 50.719
lfoot -18.6624 -7.4348
ltoes -2.07438
653
root 1.17628 15.1509 -0.749318 10.1023 7.86201 -3.40259
lowerback 18.5779 0.0940458 -7.84428
upperback -9.65933 -2.84876 -3.71433
thorax -21.5527 -0.446361 1.20371
lowerneck -12.8623 -0.379126 -5.74522
upperneck 32.3899 -1.88037 9.0777
head 13.0903 -0.33971 4.3116
rclavicle -2.09718e-014 -5.24792e-014
rhumerus -79.968 17.2332 -70.1628
rradius 129.544
rwrist -47.8307
rhand 39.2102 11.6522
rfingers 7.12502
rthumb 61.7373 -0.165037
lclavicle -2.09718e-014 -5.24792e-014
lhumerus -77.8605 -25.4169 68.9068
lradius 131.177
lwrist 81.7004
lhand 21.8486 38.4502
lfingers 7.12502
lthumb 46.2532 61.4386
rfemur -30.7437 -7.3246 16.3321
rtibia 48.1259
rfoot -20.411 -7.11297
rtoes -21.7015
lfemur -35.8289 0.153139 -16.939
ltibia 50.9235
lfoot -18.5753 -7.63389
ltoes -2.16384
654
root 1.17673 15.1435 -0.763541 10.3072 8.04043 -3.60109
lowerback 18.9459 0.0688531 -7.71538
upperback -9.72844 -2.90111 -3.72227
thorax -21.8853 -0.473404 1.14792
lowerneck -13.2814 -0.465753 -5.91858
upperneck 32.0407 -1.96629 9.20481
head 13.0452 -0.374425 4.36947
rclavicle -4.17448e-015 2.70347e-014
rhumerus -79.4814 17.9372 -70.5896
rradius 129.626
rwrist -47.5553
rhand 38.743 11.6334
rfingers 7.12502
rthumb 61.3452 -0.652612
lclavicle -4.17448e-015 2.70347e-014
lhumerus -77.5128 -26.0455 69.422
lradius 131.226
lwrist 81.6522
lhand 21.7463 38.7543
lfingers 7.12502
lthumb 46.1583 61.7827
rfemur -30.9609 -7.38792 16.6193
rtibia 48.0529
rfoot -20.5369 -7.25832
rtoes -21.7492
lfemur -36.2974 0.186384 -16.7222
ltibia 51.1347
lfoot -18.5464 -7.82955
ltoes -2.40027
655
root 1.17825 15.1368 -0.777978 10.4436 8.16759 -3.60969
lowerback 19.481 0.0806955 -7.72493
upperback -9.80282 -2.97859 -3.80427
thorax -22.3317 -0.493979 1.09592
lowerneck -13.7414 -0.589809 -6.06434
upperneck 31.7544 -2.09006 9.25592
head 13.0396 -0.431459 4.39009
rclavicle -1.65985e-014 -6.04305e-014
rhumerus -79.2008 18.5693 -71.2731
rradius 129.738
rwrist -47.6926
rhand 38.7134 11.5762
rfingers 7.12502
rthumb 61.3203 -0.739095
lclavicle -1.65985e-014 -6.04305e-014
lhumerus -77.1859 -26.7724 69.9842
lradius 131.228
lwrist 81.7874
lhand 21.7478 38.8237
lfingers 7.12502
lthumb 46.1597 61.8515
rfemur -31.1174 -7.44993 16.6463
rtibia 48.0588
rfoot -20.6176 -7.33728
rtoes -21.899
lfemur -36.6356 0.207527 -16.7314
ltibia 51.3324
lfoot -18.5542 -7.94891
ltoes -2.6778
656
root 1.17873 15.1305 -0.796035 10.4632 8.29438 -3.52957
lowerback 20.0265 0.121866 -7.8072
upperback -9.74905 -3.0378 -3.94214
thorax -22.6124 -0.510216 1.01367
lowerneck -14.2628 -0.751573 -6.14597
upperneck 31.3906 -2.26095 9.2506
head 13.0193 -0.50749 4.36596
rclavicle 1.04362e-015 -3.81667e-014
rhumerus -78.9676 19.0488 -72.0243
rradius 129.93
rwrist -48.1301
rhand 39.0809 11.242
rfingers 7.12502
rthumb 61.629 -0.706322
lclavicle 1.04362e-015 -3.81667e-014
lhumerus -76.5757 -27.5821 70.4976
lradius 131.23
lwrist 82.3022
lhand 21.582 39.1143
lfingers 7.12502
lthumb 46.0059 62.2064
rfemur -31.1866 -7.57958 16.5626
rtibia 48.1412
rfoot -20.6824 -7.41885
rtoes -22.2576
lfemur -36.8343 0.218363 -16.8419
ltibia 51.5098
lfoot -18.5398 -8.1184
ltoes -2.61388
657
root 1.17417 15.1219 -0.81859 10.4409 8.39097 -3.53301
lowerback 20.4135 0.192373 -7.89408
upperback -9.55462 -3.01606 -4.04313
thorax -22.5983 -0.501641 0.944101
lowerneck -14.7728 -0.943088 -6.25125
upperneck 30.8096 -2.46044 9.25931
head 12.9095 -0.597342 4.33567
rclavicle -3.33461e-014 -1.27222e-014
rhumerus -78.5383 19.593 -72.7732
rradius 130.05
rwrist -48.2662
rhand 39.3409 11.2607
rfingers 7.12502
rthumb 61.8466 -0.422879
lclavicle -3.33461e-014 -1.27222e-014
lhumerus -75.6778 -28.3762 71.1529
lradius 131.23
lwrist 82.83
lhand 21.4894 39.4288
lfingers 7.12502
lthumb 45.9199 62.5566
rfemur -31.3237 -7.61774 16.5798
rtibia 48.2946
rfoot -20.735 -7.47082
rtoes -22.521
lfemur -37.0422 0.298764 -16.8484
ltibia 51.6833
lfoot -18.4573 -8.3265
ltoes -2.69109
658
root 1.1679 15.1108 -0.844292 10.3091 8.48881 -3.66446
lowerback 21.077 0.267725 -7.80876
upperback -9.40519 -2.97197 -4.12798
thorax -22.831 -0.497724 0.791939
lowerneck -15.3133 -1.14849 -6.41317
upperneck 30.336 -2.68788 9.33788
head 12.8572 -0.696579 4.34493
rclavicle 6.5102e-015 -1.27222e-014
rhumerus -78.2967 20.2691 -73.8228
rradius 130.123
rwrist -48.1242
rhand 39.382 11.4964
rfingers 7.12502
rthumb 61.8809 -0.144979
lclavicle 6.5102e-015 -1.27222e-014
lhumerus -74.9986 -29.4538 72.0137
lradius 131.299
lwrist 83.3211
lhand 21.6052 39.9715
lfingers 7.12502
lthumb 46.0274 63.0547
rfemur -31.4129 -7.56108 16.7118
rtibia 48.4948
rfoot -20.7478 -7.42047
rtoes -22.211
lfemur -37.1876 0.386187 -16.6976
ltibia 51.8783
lfoot -18.3043 -8.52721
ltoes -2.62433
659
root 1.16195 15.0986 -0.87051 10.0679 8.59634 -3.69064
lowerback 21.9337 0.349538 -7.78021
upperback -9.24234 -2.97284 -4.27397
thorax -23.1639 -0.507083 0.618896
lowerneck -15.948 -1.35505 -6.56776
upperneck 29.9858 -2.93001 9.45178
head 12.8794 -0.794628 4.37131
rclavicle 1.66684e-014 0
rhumerus -78.131 21.0607 -75.1599
rradius 130.191
rwrist -48.2553
rhand 39.5724 11.484
rfingers 7.12502
rthumb 62.0398 0.0397758
lclavicle 1.66684e-014 0
lhumerus -74.6826 -30.9297 73.1145
lradius 131.427
lwrist 83.6313
lhand 21.6518 40.1316
lfingers 7.12502
lthumb 46.0706 63.1967
rfemur -31.3784 -7.58322 16.7086
rtibia 48.7466
rfoot -20.7604 -7.3277
rtoes -21.733
lfemur -37.1794 0.434301 -16.6752
ltibia 52.0787
lfoot -18.2575 -8.62559
ltoes -2.98196
